<svg width="706" height="29" viewBox="0 0 706 29" fill="none" xmlns="http://www.w3.org/2000/svg">
    <path
        d="M942.132 28.535L655.894 28.535L655.894 0.09015L913.687 0.0901387C929.386 0.090138 942.132 12.8366 942.132 28.535Z"
        fill="#FFBC0D" />
    <path
        d="M40.2091 0.0896009L668.1 0.0896283L668.1 28.5346L11.7642 28.5346C11.7642 12.8362 24.5107 0.0896002 40.2091 0.0896009Z"
        fill="#FFBC0D" />
    <path
        d="M78.5828 28.4449L11.7193 28.4449L4.29495 28.4449C1.87982 28.4449 -0.0880616 26.4323 0.359186 24.1961C3.17685 10.5103 19.3225 5.04228e-05 34.6184 5.10914e-05L39.4039 5.13006e-05C49.8695 5.1758e-05 49.2434 18.2477 78.5381 28.4449L78.5828 28.4449Z"
        fill="#BB000F" />
</svg>