<svg xmlns="http://www.w3.org/2000/svg" width="1920" height="30" viewBox="0 0 1920 30" fill="none">
    <path
        d="M678.329 0.697525L966.047 0.697512L966.047 29.2894L706.921 29.2894C691.142 29.2894 678.329 16.477 678.329 0.697525Z"
        fill="#FFBC0D" />
    <path
        d="M-5 0.697708L615.571 0.697681C631.351 0.69768 644.163 13.5101 644.163 29.2896L-5 29.2897L-5 0.697708Z"
        fill="#FFBC0D" />
    <path
        d="M1584.91 29.29L953.778 29.2899L953.778 0.69799L1613.51 0.698019C1613.51 16.4775 1600.69 29.29 1584.91 29.29Z"
        fill="#FFBC0D" />
    <path
        d="M1924.87 29.3349L1648.26 29.3349C1648.26 13.5554 1661.07 0.742935 1676.85 0.742936L1924.87 0.742947L1924.87 29.3349Z"
        fill="#FFBC0D" />
    <path
        d="M1546.34 0.788021L1613.55 0.788024L1621.01 0.788025C1623.44 0.788025 1625.42 2.81103 1624.97 5.05882C1622.14 18.8153 1605.91 29.3799 1590.53 29.3799L1585.72 29.3799C1575.2 29.3799 1575.83 11.038 1546.39 0.788021L1546.34 0.788021Z"
        fill="#BB000F" />
</svg>